<svg width="992" height="992" viewBox="0 0 992 992" fill="none" xmlns="http://www.w3.org/2000/svg">
<g clip-path="url(#clip0_1_5876)">
<path d="M834.543 469.8C853.943 656.9 717.943 824.4 530.843 843.8C343.743 863.2 176.243 727.2 156.843 540.1C137.443 353 273.443 185.5 460.543 166.1C647.643 146.7 815.143 282.7 834.543 469.8Z" fill="black"/>
<path d="M531.043 427.2L579.943 121.4L599.343 0L546.743 111.1L336.143 556.2L322.843 584.3L353.843 581.1L469.643 569.1L422.343 871.8L403.643 991.2L455.543 882L665.443 440.1L678.843 411.9L531.043 427.2Z" fill="black"/>
<path d="M404.443 802.1C379.843 794.6 356.143 784 334.043 770.6C307.043 754.3 282.743 734 261.743 710.4C218.243 661.4 191.643 600.9 184.843 535.4C180.543 493.5 184.443 451.9 196.743 411.9C208.543 373.2 227.543 337.7 253.143 306.2C278.743 274.7 309.643 248.9 344.943 229.4C381.543 209.2 421.443 196.8 463.343 192.4C465.143 192.2 466.943 192 468.743 191.9L504.043 188.9L313.643 591.2L463.343 575.7L426.843 808.8L404.443 802V802.1Z" fill="#FFFBD9"/>
<path d="M279.743 615.3L291.442 590.6L470.543 212.2C468.843 212.3 467.142 212.5 465.442 212.7C426.242 216.8 388.943 228.4 354.743 247.2C321.643 265.4 292.743 289.6 268.843 319C244.943 348.4 227.243 381.7 216.143 417.8C204.743 455.2 200.943 494 205.043 533.2C211.343 594.4 236.242 650.9 276.942 696.7C296.542 718.8 319.243 737.7 344.543 753C365.243 765.5 387.342 775.4 410.342 782.4L439.143 598.6L279.743 615.1V615.3Z" fill="#FFC800"/>
<path d="M493.343 817.7L689.443 404.8L538.743 420.4L574.043 199.8L596.943 207.7C620.243 215.7 642.643 226.5 663.443 239.8C689.343 256.3 712.643 276.5 732.643 299.8C774.143 348.1 799.543 407.3 806.143 470.9C810.443 512.8 806.443 554.4 794.243 594.4C782.443 633.1 763.443 668.6 737.943 700.1C712.343 731.6 681.443 757.4 646.143 776.9C610.043 796.8 570.843 809.1 529.643 813.7L493.343 817.7ZM742.043 389.1L730.043 414.3L562.743 766.5C584.943 760.9 606.243 752.4 626.443 741.3C657.243 724.4 684.043 701.9 706.343 674.5C728.543 647.1 745.043 616.2 755.343 582.6C765.943 547.9 769.443 511.7 765.643 475.3C762.543 445.1 754.543 416.1 742.043 389.2V389.1ZM606.543 255.3L587.443 374.5L726.443 360.1C719.143 348.3 710.943 337.1 701.743 326.5C684.343 306.2 664.043 288.7 641.543 274.3C630.343 267.1 618.543 260.8 606.443 255.3H606.543Z" fill="#FFFBD9"/>
<path d="M785.943 473.1C779.743 413.6 756.043 358.3 717.243 313.2C698.543 291.4 676.743 272.5 652.543 257.1C633.043 244.6 612.143 234.6 590.343 227.1L563.043 397.6L696.143 383.8L723.343 381L711.643 405.7L527.343 793.6C565.943 789.4 602.543 777.8 636.243 759.2C669.343 741 698.243 716.8 722.143 687.4C746.043 658 763.743 624.7 774.843 588.6C786.243 551.2 790.043 512.4 785.943 473.2" fill="#FFC800"/>
<path d="M495.442 543.4L358.942 557.6L553.642 146L504.942 450.6L642.542 436.4L448.242 845.3L495.442 543.4Z" fill="#E23A2D"/>
<path d="M553.643 146L428.043 527.8L504.943 450.6L553.643 146Z" fill="#F25C49"/>
<path d="M642.543 436.4L504.943 450.6L428.043 527.8L642.543 436.4Z" fill="#F28D86"/>
<path d="M642.543 436.4L560.243 471.5L448.243 845.3L642.543 436.4Z" fill="#F25C49"/>
<path d="M560.242 471.5L495.442 543.4L358.942 557.6L560.242 471.5Z" fill="#C62118"/>
</g>
<defs>
<clipPath id="clip0_1_5876">
<rect width="991.2" height="991.2" fill="white"/>
</clipPath>
</defs>
</svg>
