<svg width="150" height="150" viewBox="0 0 150 150" fill="none" xmlns="http://www.w3.org/2000/svg">
<mask id="mask0_2_7834" style="mask-type:luminance" maskUnits="userSpaceOnUse" x="0" y="0" width="150" height="150">
<path d="M149.879 0H0V149.879H149.879V0Z" fill="white"/>
</mask>
<g mask="url(#mask0_2_7834)">
<path d="M126.191 71.0383C129.124 99.3296 108.56 124.657 80.2685 127.591C51.9772 130.524 26.6496 109.96 23.7161 81.6683C20.7827 53.377 41.3472 28.0494 69.6385 25.1159C97.9298 22.1824 123.257 42.7469 126.191 71.0383Z" fill="black"/>
<path d="M80.2988 64.5968L87.6929 18.3569L90.6264 0L82.6727 16.7994L50.828 84.1028L48.8169 88.3518L53.5044 87.8679L71.0145 86.0534L63.8623 131.825L61.0346 149.879L68.8824 133.367L100.621 66.5474L102.648 62.2833L80.2988 64.5968Z" fill="black"/>
<path d="M61.1556 121.285C57.4359 120.151 53.8522 118.548 50.5105 116.522C46.4278 114.057 42.7534 110.988 39.578 107.419C33.0004 100.01 28.9782 90.8619 27.95 80.9576C27.2998 74.622 27.8895 68.3316 29.7494 62.2832C31.5337 56.4314 34.4067 51.0635 38.2776 46.3004C42.1486 41.5373 46.821 37.6361 52.1587 34.6875C57.6929 31.633 63.7262 29.758 70.0619 29.0927C70.3341 29.0625 70.6063 29.0322 70.8784 29.0171L76.2161 28.5635L47.4258 89.3951L70.0619 87.0514L64.5427 122.298L61.1556 121.27V121.285Z" fill="#FFFBD9"/>
<path d="M42.2997 93.0393L44.0687 89.3044L71.1505 32.0867C70.8934 32.1018 70.6362 32.132 70.3792 32.1623C64.4517 32.7822 58.8118 34.5363 53.6404 37.379C48.6354 40.131 44.2654 43.7903 40.6515 48.2359C37.0376 52.6814 34.3612 57.7167 32.6827 63.1754C30.959 68.8306 30.3844 74.6976 31.0043 80.625C31.9569 89.879 35.7219 98.4224 41.8761 105.348C44.8399 108.689 48.2725 111.547 52.0981 113.861C55.2281 115.751 58.5697 117.248 62.0475 118.306L66.4025 90.5141L42.2997 93.009V93.0393Z" fill="#FFC800"/>
<path d="M74.5981 123.644L104.25 61.2097L81.4631 63.5685L86.8008 30.2117L90.2635 31.4062C93.7867 32.6159 97.1737 34.249 100.319 36.2601C104.235 38.755 107.758 41.8095 110.783 45.3326C117.058 52.6361 120.899 61.5877 121.897 71.2046C122.547 77.5403 121.942 83.8306 120.097 89.879C118.313 95.7308 115.44 101.099 111.584 105.862C107.713 110.625 103.041 114.526 97.703 117.475C92.2443 120.484 86.3169 122.344 80.0871 123.039L74.5981 123.644ZM112.204 58.8357L110.389 62.6461L85.0921 115.902C88.4489 115.055 91.6697 113.77 94.7242 112.092C99.3814 109.536 103.434 106.134 106.806 101.991C110.163 97.8478 112.658 93.1754 114.215 88.0947C115.818 82.8478 116.347 77.374 115.773 71.8699C115.304 67.3034 114.094 62.9183 112.204 58.8508V58.8357ZM91.7151 38.6038L88.827 56.628L109.845 54.4506C108.741 52.6663 107.501 50.9728 106.11 49.3699C103.479 46.3004 100.41 43.6542 97.0074 41.4768C95.3139 40.3881 93.5296 39.4355 91.7 38.6038H91.7151Z" fill="#FFFBD9"/>
<path d="M118.842 71.5373C117.905 62.5403 114.321 54.1784 108.454 47.3589C105.626 44.0625 102.33 41.2046 98.6707 38.876C95.7221 36.9859 92.5618 35.4738 89.2655 34.3397L85.1374 60.121L105.263 58.0343L109.376 57.6109L107.607 61.3458L79.7393 120C85.576 119.365 91.1102 117.611 96.206 114.798C101.211 112.046 105.581 108.387 109.195 103.942C112.809 99.496 115.485 94.4607 117.164 89.002C118.887 83.3468 119.462 77.4798 118.842 71.5524" fill="#FFC800"/>
<path d="M74.9155 82.1674L54.2754 84.3146L83.7159 22.0767L76.352 68.1351L97.1585 65.988L67.7784 127.818L74.9155 82.1674Z" fill="#E23A2D"/>
<path d="M83.7161 22.0767L64.7241 79.8085L76.3521 68.1351L83.7161 22.0767Z" fill="#F25C49"/>
<path d="M97.1586 65.9879L76.3521 68.1351L64.7241 79.8085L97.1586 65.9879Z" fill="#F28D86"/>
<path d="M97.1586 65.9879L84.714 71.2954L67.7786 127.818L97.1586 65.9879Z" fill="#F25C49"/>
<path d="M84.7139 71.2954L74.9155 82.1674L54.2754 84.3146L84.7139 71.2954Z" fill="#C62118"/>
</g>
</svg>
